<?xml version="1.0" encoding="utf-8"?>
<!-- Generator: Adobe Illustrator 28.0.0, SVG Export Plug-In . SVG Version: 6.00 Build 0)  -->
<svg version="1.1" id="Capa_1" xmlns="http://www.w3.org/2000/svg" xmlns:xlink="http://www.w3.org/1999/xlink" x="0px" y="0px"
	 viewBox="0 0 691 125.6" style="enable-background:new 0 0 691 125.6;" xml:space="preserve">
<style type="text/css">
	.st0{fill:#FF0000;}
	.st1{fill:#FFFFFF;}
	.st2{fill:#282828;}
</style>
<g transform="matrix(5.715038, 0, 0, 5.715038, 409.288757, 277.787231)">
	<g>
		<path class="st0" d="M-43.6-43.5c-0.3-1.2-1.3-2.2-2.5-2.5c-2.2-0.6-11.2-0.6-11.2-0.6s-8.9,0-11.2,0.6c-1.2,0.3-2.2,1.3-2.5,2.5
			c-0.6,2.2-0.6,6.9-0.6,6.9s0,4.6,0.6,6.9c0.3,1.2,1.3,2.2,2.5,2.5c2.2,0.6,11.2,0.6,11.2,0.6s8.9,0,11.2-0.6
			c1.2-0.3,2.2-1.3,2.5-2.5C-43-32-43-36.6-43-36.6S-43-41.3-43.6-43.5z"/>
		<path class="st1" d="M-60.2-32.3l7.4-4.3l-7.4-4.3V-32.3z"/>
	</g>
	<g>
		<g id="youtube-paths">
			<path class="st2" d="M-37-33.6l-3.2-11.6h2.8l1.1,5.3c0.3,1.3,0.5,2.4,0.6,3.3h0.1c0.1-0.7,0.3-1.7,0.6-3.3l1.2-5.3h2.8
				l-3.2,11.6v5.6H-37L-37-33.6L-37-33.6z"/>
			<path class="st2" d="M-30.1-28.4c-0.6-0.4-1-1-1.2-1.8c-0.2-0.8-0.4-1.9-0.4-3.2v-1.8c0-1.3,0.1-2.4,0.4-3.2
				c0.3-0.8,0.7-1.4,1.3-1.8c0.6-0.4,1.3-0.6,2.3-0.6c0.9,0,1.7,0.2,2.2,0.6c0.6,0.4,1,1,1.2,1.8c0.3,0.8,0.4,1.9,0.4,3.2v1.8
				c0,1.3-0.1,2.4-0.4,3.2c-0.3,0.8-0.7,1.4-1.2,1.8c-0.6,0.4-1.3,0.6-2.3,0.6C-28.8-27.9-29.6-28.1-30.1-28.4z M-27-30.4
				c0.2-0.4,0.2-1.1,0.2-2v-3.9c0-0.9-0.1-1.6-0.2-2c-0.2-0.4-0.4-0.6-0.8-0.6c-0.4,0-0.7,0.2-0.8,0.6c-0.2,0.4-0.2,1.1-0.2,2v3.9
				c0,0.9,0.1,1.6,0.2,2c0.2,0.4,0.4,0.6,0.8,0.6C-27.4-29.8-27.1-30-27-30.4z"/>
			<path class="st2" d="M-14.8-28.1H-17l-0.2-1.5h-0.1c-0.6,1.2-1.5,1.7-2.7,1.7c-0.8,0-1.4-0.3-1.8-0.8c-0.4-0.5-0.6-1.4-0.6-2.6
				v-9.4h2.8v9.2c0,0.6,0.1,1,0.2,1.2c0.1,0.2,0.3,0.4,0.6,0.4c0.2,0,0.5-0.1,0.7-0.2c0.2-0.2,0.4-0.3,0.5-0.6v-10h2.8V-28.1z"/>
			<path class="st2" d="M-7.1-42.9h-2.8v14.9h-2.8v-14.9h-2.8v-2.3h8.4V-42.9z"/>
			<path class="st2" d="M-0.3-28.1h-2.2l-0.2-1.5h-0.1c-0.6,1.2-1.5,1.7-2.7,1.7c-0.8,0-1.4-0.3-1.8-0.8C-7.8-29.2-8-30.1-8-31.2
				v-9.4h2.8v9.2c0,0.6,0.1,1,0.2,1.2c0.1,0.2,0.3,0.4,0.6,0.4c0.2,0,0.5-0.1,0.7-0.2c0.2-0.2,0.4-0.3,0.5-0.6v-10h2.8V-28.1z"/>
			<path class="st2" d="M9-38.6c-0.2-0.8-0.4-1.4-0.8-1.7c-0.4-0.4-0.9-0.5-1.6-0.5c-0.5,0-1,0.1-1.5,0.4c-0.4,0.3-0.8,0.7-1,1.2h0
				v-6.6H1.4v17.8h2.3L4-29.3H4c0.2,0.4,0.5,0.8,1,1c0.4,0.2,0.9,0.4,1.5,0.4c1,0,1.7-0.4,2.1-1.3c0.4-0.9,0.7-2.3,0.7-4.1v-2
				C9.2-36.7,9.2-37.8,9-38.6z M6.4-33.5c0,0.9,0,1.6-0.1,2.1c-0.1,0.5-0.2,0.9-0.4,1.1c-0.2,0.2-0.4,0.3-0.7,0.3
				c-0.2,0-0.4-0.1-0.6-0.2c-0.2-0.1-0.4-0.3-0.5-0.5v-7.1c0.1-0.3,0.3-0.6,0.5-0.8c0.2-0.2,0.5-0.3,0.8-0.3c0.3,0,0.5,0.1,0.7,0.3
				c0.2,0.2,0.3,0.6,0.3,1.1c0.1,0.5,0.1,1.3,0.1,2.3L6.4-33.5L6.4-33.5z"/>
			<path class="st2" d="M13.2-32.8c0,0.8,0,1.4,0.1,1.8c0,0.4,0.1,0.7,0.3,0.9c0.2,0.2,0.4,0.3,0.7,0.3c0.4,0,0.7-0.2,0.9-0.5
				c0.2-0.3,0.2-0.9,0.3-1.6l2.4,0.1c0,0.1,0,0.3,0,0.4c0,1.2-0.3,2-1,2.6c-0.6,0.6-1.5,0.9-2.7,0.9c-1.4,0-2.4-0.4-2.9-1.3
				c-0.6-0.9-0.8-2.2-0.8-4v-2.2c0-1.9,0.3-3.3,0.9-4.1c0.6-0.9,1.6-1.3,3-1.3c1,0,1.7,0.2,2.2,0.5c0.5,0.4,0.9,0.9,1.1,1.7
				c0.2,0.8,0.3,1.8,0.3,3.1v2.1h-4.7V-32.8z M13.6-38.7c-0.1,0.2-0.2,0.5-0.3,0.9c0,0.4-0.1,1-0.1,1.8v0.9h2.1V-36
				c0-0.8,0-1.4-0.1-1.8c-0.1-0.4-0.2-0.7-0.3-0.9c-0.1-0.2-0.4-0.3-0.7-0.3C14-38.9,13.7-38.8,13.6-38.7z"/>
		</g>
	</g>
</g>
<g>
	<path d="M553.7,34.4c0,0.2,0,0.4,0,0.6c0,0.2,0,0.3-0.1,0.4c0,0.1-0.1,0.2-0.1,0.3c-0.1,0.1-0.2,0.2-0.3,0.3
		c-0.1,0.1-0.4,0.3-0.9,0.6c-0.4,0.3-1,0.6-1.6,0.8c-0.6,0.3-1.4,0.5-2.2,0.7c-0.8,0.2-1.8,0.3-2.8,0.3c-1.7,0-3.3-0.3-4.7-0.9
		c-1.4-0.6-2.6-1.4-3.5-2.5c-1-1.1-1.7-2.5-2.3-4.1c-0.5-1.6-0.8-3.5-0.8-5.7c0-2.2,0.3-4.2,0.8-5.9c0.6-1.7,1.4-3.2,2.4-4.4
		c1-1.2,2.2-2.1,3.7-2.7c1.4-0.6,3-0.9,4.7-0.9c0.8,0,1.5,0.1,2.2,0.2c0.7,0.1,1.4,0.3,2,0.5c0.6,0.2,1.2,0.5,1.6,0.8
		c0.5,0.3,0.8,0.5,1,0.7c0.2,0.2,0.3,0.3,0.4,0.4c0.1,0.1,0.1,0.2,0.1,0.3c0,0.1,0.1,0.3,0.1,0.5c0,0.2,0,0.4,0,0.6
		c0,0.3,0,0.5,0,0.7c0,0.2-0.1,0.4-0.1,0.5c-0.1,0.1-0.1,0.2-0.2,0.3c-0.1,0.1-0.2,0.1-0.3,0.1c-0.2,0-0.5-0.1-0.8-0.4
		c-0.3-0.3-0.8-0.6-1.3-0.9c-0.5-0.3-1.2-0.6-2-0.9c-0.8-0.3-1.7-0.4-2.8-0.4c-1.2,0-2.3,0.2-3.2,0.7c-1,0.5-1.8,1.2-2.5,2.1
		c-0.7,0.9-1.2,2-1.6,3.3c-0.4,1.3-0.6,2.8-0.6,4.5c0,1.7,0.2,3.2,0.5,4.4s0.9,2.4,1.6,3.2c0.7,0.9,1.5,1.5,2.5,2
		c1,0.4,2.1,0.7,3.4,0.7c1.1,0,2-0.1,2.8-0.4c0.8-0.3,1.5-0.5,2-0.9c0.6-0.3,1-0.6,1.4-0.9s0.6-0.4,0.8-0.4c0.1,0,0.2,0,0.2,0.1
		c0.1,0,0.1,0.1,0.2,0.2c0,0.1,0.1,0.3,0.1,0.5C553.7,33.8,553.7,34.1,553.7,34.4z"/>
	<path d="M580.2,24.6c0,2.1-0.3,4.1-0.8,5.8c-0.5,1.7-1.3,3.2-2.3,4.4c-1,1.2-2.3,2.1-3.8,2.8c-1.5,0.6-3.3,1-5.3,1
		c-2,0-3.7-0.3-5.2-0.9c-1.5-0.6-2.7-1.5-3.6-2.6c-0.9-1.1-1.7-2.5-2.1-4.2c-0.5-1.7-0.7-3.6-0.7-5.8c0-2.1,0.3-4,0.8-5.7
		c0.5-1.7,1.3-3.2,2.3-4.3c1-1.2,2.3-2.1,3.8-2.8c1.5-0.6,3.3-1,5.3-1c2,0,3.6,0.3,5.1,0.9c1.4,0.6,2.6,1.4,3.6,2.6
		c1,1.1,1.7,2.5,2.1,4.2S580.2,22.5,580.2,24.6z M576.4,24.9c0-1.5-0.1-2.9-0.4-4.2s-0.7-2.4-1.3-3.4c-0.6-0.9-1.4-1.7-2.5-2.2
		c-1-0.5-2.3-0.8-3.8-0.8c-1.5,0-2.8,0.3-3.8,0.9c-1,0.6-1.9,1.3-2.5,2.3c-0.6,1-1.1,2.1-1.4,3.3c-0.3,1.3-0.4,2.6-0.4,4
		c0,1.6,0.1,3,0.4,4.3c0.3,1.3,0.7,2.4,1.3,3.4c0.6,0.9,1.4,1.7,2.5,2.2c1,0.5,2.3,0.8,3.9,0.8c1.5,0,2.8-0.3,3.9-0.9
		c1-0.6,1.9-1.3,2.5-2.3c0.6-1,1.1-2.1,1.4-3.4C576.3,27.7,576.4,26.3,576.4,24.9z"/>
</g>
</svg>
